<svg width="1300" height="50"><g transform="translate(30,30)"><line></line><line x1="0" y1="-5" x2="0" y2="5" style="stroke: rgb(153, 153, 153);"></line><text x="0" y="-15" dy=".35em" text-anchor="middle" stroke="#ccc">1</text><line x1="43.57142857142857" y1="-5" x2="43.57142857142857" y2="5" style="stroke: rgb(153, 153, 153);"></line><text x="43.57142857142857" y="-15" dy=".35em" text-anchor="middle" stroke="#ccc">2</text><line x1="87.14285714285714" y1="-5" x2="87.14285714285714" y2="5" style="stroke: rgb(153, 153, 153);"></line><text x="87.14285714285714" y="-15" dy=".35em" text-anchor="middle" stroke="#ccc">3</text><line x1="130.71428571428572" y1="-5" x2="130.71428571428572" y2="5" style="stroke: rgb(153, 153, 153);"></line><text x="130.71428571428572" y="-15" dy=".35em" text-anchor="middle" stroke="#ccc">4</text><line x1="174.28571428571428" y1="-5" x2="174.28571428571428" y2="5" style="stroke: rgb(153, 153, 153);"></line><text x="174.28571428571428" y="-15" dy=".35em" text-anchor="middle" stroke="#ccc">5</text><line x1="217.85714285714283" y1="-5" x2="217.85714285714283" y2="5" style="stroke: rgb(153, 153, 153);"></line><text x="217.85714285714283" y="-15" dy=".35em" text-anchor="middle" stroke="#ccc">6</text><line x1="261.4285714285714" y1="-5" x2="261.4285714285714" y2="5" style="stroke: rgb(153, 153, 153);"></line><text x="261.4285714285714" y="-15" dy=".35em" text-anchor="middle" stroke="#ccc">7</text><line x1="304.99999999999994" y1="-5" x2="304.99999999999994" y2="5" style="stroke: rgb(153, 153, 153);"></line><text x="304.99999999999994" y="-15" dy=".35em" text-anchor="middle" stroke="#ccc">8</text><line x1="348.5714285714285" y1="-5" x2="348.5714285714285" y2="5" style="stroke: rgb(153, 153, 153);"></line><text x="348.5714285714285" y="-15" dy=".35em" text-anchor="middle" stroke="#ccc">9</text><line x1="392.14285714285705" y1="-5" x2="392.14285714285705" y2="5" style="stroke: rgb(153, 153, 153);"></line><text x="392.14285714285705" y="-15" dy=".35em" text-anchor="middle" stroke="#ccc">10</text><line x1="435.7142857142856" y1="-5" x2="435.7142857142856" y2="5" style="stroke: rgb(153, 153, 153);"></line><text x="435.7142857142856" y="-15" dy=".35em" text-anchor="middle" stroke="#ccc">11</text><line x1="479.28571428571416" y1="-5" x2="479.28571428571416" y2="5" style="stroke: rgb(153, 153, 153);"></line><text x="479.28571428571416" y="-15" dy=".35em" text-anchor="middle" stroke="#ccc">12</text><line x1="522.8571428571428" y1="-5" x2="522.8571428571428" y2="5" style="stroke: rgb(153, 153, 153);"></line><text x="522.8571428571428" y="-15" dy=".35em" text-anchor="middle" stroke="#ccc">13</text><line x1="566.4285714285713" y1="-5" x2="566.4285714285713" y2="5" style="stroke: rgb(153, 153, 153);"></line><text x="566.4285714285713" y="-15" dy=".35em" text-anchor="middle" stroke="#ccc">14</text><line x1="609.9999999999999" y1="-5" x2="609.9999999999999" y2="5" style="stroke: rgb(153, 153, 153);"></line><text x="609.9999999999999" y="-15" dy=".35em" text-anchor="middle" stroke="#ccc">15</text><line x1="653.5714285714284" y1="-5" x2="653.5714285714284" y2="5" style="stroke: rgb(153, 153, 153);"></line><text x="653.5714285714284" y="-15" dy=".35em" text-anchor="middle" stroke="#ccc">16</text><line x1="697.142857142857" y1="-5" x2="697.142857142857" y2="5" style="stroke: rgb(153, 153, 153);"></line><text x="697.142857142857" y="-15" dy=".35em" text-anchor="middle" stroke="#ccc">17</text><line x1="740.7142857142856" y1="-5" x2="740.7142857142856" y2="5" style="stroke: rgb(153, 153, 153);"></line><text x="740.7142857142856" y="-15" dy=".35em" text-anchor="middle" stroke="#ccc">18</text><line x1="784.2857142857141" y1="-5" x2="784.2857142857141" y2="5" style="stroke: rgb(153, 153, 153);"></line><text x="784.2857142857141" y="-15" dy=".35em" text-anchor="middle" stroke="#ccc">19</text><line x1="827.8571428571427" y1="-5" x2="827.8571428571427" y2="5" style="stroke: rgb(153, 153, 153);"></line><text x="827.8571428571427" y="-15" dy=".35em" text-anchor="middle" stroke="#ccc">20</text><line x1="871.4285714285712" y1="-5" x2="871.4285714285712" y2="5" style="stroke: rgb(153, 153, 153);"></line><text x="871.4285714285712" y="-15" dy=".35em" text-anchor="middle" stroke="#ccc">21</text><line x1="914.9999999999998" y1="-5" x2="914.9999999999998" y2="5" style="stroke: rgb(153, 153, 153);"></line><text x="914.9999999999998" y="-15" dy=".35em" text-anchor="middle" stroke="#ccc">22</text><line x1="958.5714285714283" y1="-5" x2="958.5714285714283" y2="5" style="stroke: rgb(153, 153, 153);"></line><text x="958.5714285714283" y="-15" dy=".35em" text-anchor="middle" stroke="#ccc">23</text><line x1="1002.1428571428569" y1="-5" x2="1002.1428571428569" y2="5" style="stroke: rgb(153, 153, 153);"></line><text x="1002.1428571428569" y="-15" dy=".35em" text-anchor="middle" stroke="#ccc">24</text><line x1="1045.7142857142856" y1="-5" x2="1045.7142857142856" y2="5" style="stroke: rgb(153, 153, 153);"></line><text x="1045.7142857142856" y="-15" dy=".35em" text-anchor="middle" stroke="#ccc">25</text><line x1="1089.2857142857142" y1="-5" x2="1089.2857142857142" y2="5" style="stroke: rgb(153, 153, 153);"></line><text x="1089.2857142857142" y="-15" dy=".35em" text-anchor="middle" stroke="#ccc">26</text><line x1="1132.857142857143" y1="-5" x2="1132.857142857143" y2="5" style="stroke: rgb(153, 153, 153);"></line><text x="1132.857142857143" y="-15" dy=".35em" text-anchor="middle" stroke="#ccc">27</text><line x1="1176.4285714285716" y1="-5" x2="1176.4285714285716" y2="5" style="stroke: rgb(153, 153, 153);"></line><text x="1176.4285714285716" y="-15" dy=".35em" text-anchor="middle" stroke="#ccc">28</text><line x1="1220.0000000000002" y1="-5" x2="1220.0000000000002" y2="5" style="stroke: rgb(153, 153, 153);"></line><text x="1220.0000000000002" y="-15" dy=".35em" text-anchor="middle" stroke="#ccc">29</text></g></svg>